<?xml version="1.0" standalone="no"?>
<!DOCTYPE svg PUBLIC "-//W3C//DTD SVG 20010904//EN"
 "http://www.w3.org/TR/2001/REC-SVG-20010904/DTD/svg10.dtd">
<svg version="1.0" xmlns="http://www.w3.org/2000/svg"
 width="2679.000000pt" height="2196.000000pt" viewBox="0 0 2679.000000 2196.000000"
 preserveAspectRatio="xMidYMid meet">

<g transform="translate(0.000000,2196.000000) scale(0.100000,-0.100000)"
fill="#364675" stroke="none">
<path d="M7910 21568 c0 -4 84 -74 187 -155 102 -82 243 -193 312 -248 69 -55
156 -122 192 -150 60 -46 191 -148 569 -445 80 -63 193 -151 251 -196 59 -45
152 -117 206 -161 206 -162 572 -448 664 -518 43 -33 167 -130 275 -215 109
-85 259 -202 333 -260 109 -85 377 -294 628 -490 18 -14 142 -110 275 -214
134 -104 284 -222 333 -262 50 -39 133 -105 186 -145 53 -41 179 -139 280
-218 101 -80 218 -170 259 -202 86 -66 305 -237 430 -337 46 -37 123 -96 170
-132 47 -36 124 -95 170 -132 47 -37 142 -111 211 -165 241 -188 473 -369 568
-443 53 -42 157 -123 231 -180 300 -233 569 -443 645 -504 44 -35 118 -92 165
-128 47 -35 121 -93 166 -129 164 -130 292 -230 390 -306 101 -78 278 -216
554 -433 80 -63 188 -147 240 -188 52 -40 140 -109 195 -152 55 -43 179 -139
275 -214 258 -202 655 -513 882 -692 81 -64 145 -121 142 -127 -2 -7 -48 -46
-101 -87 -53 -41 -167 -130 -252 -198 -86 -67 -183 -143 -216 -169 -33 -26
-89 -70 -125 -98 -36 -28 -141 -111 -235 -184 -336 -262 -814 -636 -1055 -826
-137 -107 -202 -159 -425 -332 -367 -286 -415 -323 -514 -402 -52 -41 -124
-97 -160 -124 -36 -27 -112 -87 -170 -133 -58 -46 -162 -127 -231 -182 -379
-298 -539 -425 -575 -456 l-40 -35 694 -1 693 0 47 33 c25 19 136 104 246 191
214 169 374 294 570 446 67 52 202 158 301 235 179 140 310 243 550 431 179
140 646 505 1365 1068 63 50 171 135 240 188 377 294 475 371 584 457 66 52
143 113 172 135 29 23 52 44 53 48 0 8 -33 35 -195 161 -66 51 -205 160 -310
242 -420 329 -542 424 -851 664 -60 47 -149 117 -199 156 -49 39 -193 152
-320 250 -126 99 -319 249 -429 335 -109 85 -210 164 -225 175 -14 11 -183
142 -376 292 -192 150 -362 282 -377 293 -16 12 -28 25 -28 30 0 9 332 277
715 575 277 216 391 306 780 610 231 180 481 376 555 435 168 132 387 304 461
361 574 443 796 620 795 634 -1 5 -53 49 -116 97 -63 48 -165 127 -226 175
-208 165 -905 709 -1186 927 -64 50 -185 145 -269 211 -170 134 -335 262 -544
425 -333 260 -543 424 -910 712 -93 73 -224 176 -290 227 -66 52 -137 108
-159 125 l-38 31 -677 0 c-372 0 -686 -2 -698 -4 -19 -3 -9 -14 65 -72 48 -38
125 -100 171 -137 78 -62 196 -155 511 -401 69 -53 199 -155 290 -226 91 -71
269 -210 395 -308 236 -184 318 -248 581 -454 191 -149 432 -338 505 -394 58
-45 300 -234 529 -414 138 -108 211 -166 483 -378 97 -77 177 -143 177 -148 0
-5 -26 -27 -57 -51 -32 -23 -121 -92 -198 -153 -77 -61 -180 -142 -229 -181
-164 -128 -390 -305 -490 -382 -55 -42 -125 -97 -157 -122 -201 -158 -728
-570 -894 -699 -27 -21 -97 -76 -155 -122 -58 -46 -154 -121 -215 -167 -60
-46 -129 -101 -152 -123 -23 -21 -50 -39 -60 -39 -21 0 -354 250 -737 553 -71
56 -151 117 -178 135 -26 18 -48 38 -48 45 0 6 13 21 28 32 15 10 79 60 142
110 124 98 350 275 820 642 91 71 251 196 355 278 243 189 295 234 295 249 0
7 -48 49 -107 94 -60 45 -148 113 -198 152 -49 38 -147 114 -216 167 -201 156
-449 350 -709 553 -262 206 -392 307 -559 437 -90 70 -233 182 -316 248 -168
132 -356 280 -482 377 -44 35 -221 173 -393 308 -172 135 -337 265 -368 288
-31 24 -117 92 -192 151 -74 59 -151 118 -170 131 l-35 25 -692 0 c-381 0
-692 -3 -690 -6 6 -15 226 -191 547 -439 107 -83 286 -223 364 -285 97 -77
280 -220 307 -240 25 -19 173 -134 514 -401 83 -65 202 -158 266 -208 330
-257 392 -306 489 -382 58 -46 175 -137 260 -204 85 -66 209 -163 275 -215
323 -254 394 -309 543 -425 89 -69 160 -129 158 -135 -1 -5 -26 -26 -55 -46
-29 -20 -92 -68 -139 -107 -83 -67 -278 -220 -488 -382 -53 -41 -133 -105
-178 -143 -44 -37 -84 -66 -88 -65 -7 3 -268 201 -378 288 -32 25 -91 71 -131
102 -84 64 -563 437 -660 513 -35 28 -127 100 -204 160 -78 61 -218 169 -311
242 -93 73 -218 171 -279 217 -60 47 -126 99 -145 114 -19 16 -161 127 -315
247 -154 121 -404 316 -555 434 -151 118 -336 262 -411 320 -237 184 -311 242
-449 351 -74 59 -220 173 -325 255 -104 82 -254 200 -331 262 -78 62 -166 129
-195 149 l-54 35 -682 -3 c-376 -2 -683 -6 -683 -10z"/>
<path d="M7709 19944 c0 -143 -2 -382 -2 -533 -2 -240 0 -277 15 -301 9 -15
83 -79 165 -142 81 -63 177 -137 213 -165 106 -84 354 -278 540 -423 96 -74
208 -162 249 -195 42 -33 134 -105 205 -160 71 -55 188 -146 260 -203 72 -56
178 -139 236 -184 58 -45 152 -118 210 -164 58 -46 175 -137 260 -204 85 -66
218 -169 295 -229 77 -61 199 -155 270 -211 244 -190 428 -335 555 -435 69
-55 199 -158 288 -228 89 -70 162 -133 162 -140 0 -7 -35 -37 -78 -67 -42 -30
-131 -98 -197 -150 -66 -53 -259 -205 -430 -339 -170 -133 -364 -285 -430
-336 -66 -52 -174 -136 -239 -187 -65 -51 -168 -131 -227 -178 -96 -75 -238
-186 -524 -410 -46 -36 -172 -135 -281 -220 -109 -85 -261 -204 -339 -265
-135 -104 -337 -262 -720 -563 -93 -73 -234 -183 -312 -243 l-143 -110 0 -529
c0 -290 -3 -536 -7 -546 -12 -31 82 29 247 158 85 67 318 249 518 405 200 156
400 313 445 348 80 63 391 306 652 510 146 114 615 480 835 653 80 63 219 172
310 242 91 71 233 182 315 246 83 65 202 158 266 208 64 50 260 203 435 340
175 137 369 288 429 334 61 46 126 100 145 118 20 19 39 34 43 34 17 0 916
-707 947 -744 13 -17 13 -20 -5 -33 -11 -8 -49 -35 -85 -61 -36 -26 -86 -63
-110 -83 -74 -59 -542 -426 -695 -544 -78 -60 -271 -211 -429 -335 -427 -335
-552 -432 -651 -509 -49 -39 -169 -132 -266 -208 -218 -171 -496 -389 -597
-467 -42 -33 -159 -124 -259 -203 -385 -301 -555 -434 -758 -593 -115 -90
-241 -189 -280 -219 -38 -31 -88 -70 -110 -87 -75 -57 -600 -467 -665 -519
-67 -53 -175 -137 -276 -215 -184 -142 -353 -281 -377 -309 -21 -26 -27 -43
-27 -82 0 -45 3 -51 28 -60 17 -7 227 -11 604 -12 l577 -2 48 34 c46 33 114
86 448 347 231 182 375 294 555 434 91 71 233 181 315 246 83 65 191 149 241
188 51 39 170 132 264 206 95 74 225 176 289 226 302 236 768 600 876 684 152
120 374 293 535 419 69 54 197 154 285 223 290 227 911 711 1074 838 88 69
168 126 176 128 9 2 46 -21 83 -50 37 -30 139 -110 227 -178 88 -68 203 -158
255 -200 52 -42 136 -107 185 -145 50 -38 116 -91 148 -118 l57 -49 -47 -38
c-27 -21 -129 -102 -228 -180 -99 -78 -225 -177 -280 -221 -106 -83 -612 -477
-730 -569 -38 -29 -101 -79 -140 -110 -38 -31 -119 -94 -179 -140 -59 -45
-143 -110 -185 -144 -42 -33 -146 -115 -231 -181 -84 -66 -199 -156 -254 -200
-88 -70 -203 -160 -411 -321 -104 -80 -562 -439 -650 -509 -49 -39 -216 -170
-370 -290 -291 -228 -395 -312 -395 -323 0 -4 309 -6 686 -4 565 2 691 5 713
17 14 7 71 49 126 92 113 90 1065 834 1254 981 125 97 428 334 531 415 89 71
473 371 1160 907 355 277 717 559 805 628 179 140 225 180 225 198 0 6 -133
115 -296 240 -369 286 -459 355 -674 524 -95 74 -239 187 -320 250 -203 158
-444 346 -635 496 -88 69 -185 144 -215 167 -30 23 -109 85 -176 137 -158 125
-321 252 -589 461 -500 390 -783 611 -1025 800 -102 80 -297 233 -435 340
-137 107 -290 227 -340 265 -49 39 -209 164 -355 277 -146 114 -302 236 -346
271 -45 36 -150 118 -234 183 -84 65 -194 150 -244 188 -121 94 -541 422 -691
539 -151 119 -489 383 -619 484 -55 42 -165 128 -245 191 -286 225 -369 290
-601 471 -129 101 -260 203 -290 226 -122 96 -257 201 -292 228 l-38 28 -1
-258z"/>
<path d="M7705 17056 c1 -515 2 -536 20 -556 17 -19 207 -172 498 -402 42 -33
77 -66 77 -72 0 -7 -13 -19 -28 -28 -15 -9 -73 -52 -129 -95 -306 -236 -404
-316 -418 -337 -14 -20 -16 -93 -15 -552 0 -290 2 -529 4 -532 11 -10 19 -4
934 713 239 187 478 374 532 415 53 41 195 151 314 244 l216 170 -32 34 c-30
31 -81 71 -363 288 -55 42 -140 109 -190 149 -49 39 -162 127 -250 195 -239
185 -515 402 -645 505 -169 135 -510 395 -518 395 -4 0 -7 -241 -7 -534z"/>
<path d="M6290 8789 c-718 -68 -1293 -471 -1571 -1099 -177 -401 -222 -825
-133 -1255 161 -778 752 -1343 1548 -1480 447 -77 911 -14 1287 175 376 189
647 461 830 835 87 179 139 345 180 582 30 170 33 491 6 658 -102 641 -452
1123 -1012 1396 -189 91 -347 142 -554 175 -115 18 -448 26 -581 13z m415
-284 c339 -100 600 -411 737 -880 127 -435 151 -1007 62 -1453 -89 -445 -283
-759 -560 -907 -71 -38 -196 -72 -294 -80 -97 -7 -263 13 -354 45 -367 126
-628 474 -761 1012 -102 415 -115 874 -34 1273 70 343 188 592 368 775 120
121 260 200 416 234 108 24 304 15 420 -19z"/>
<path d="M15525 8783 c-55 -8 -117 -22 -138 -31 -38 -17 -41 -22 -102 -177
-215 -543 -576 -1443 -985 -2455 -221 -547 -261 -631 -344 -718 -67 -71 -215
-142 -358 -172 -32 -6 -58 -12 -58 -13 0 -1 -3 -46 -6 -99 l-7 -97 34 -6 c19
-3 333 -4 699 -3 l665 3 3 100 3 101 -113 18 c-225 37 -340 95 -379 188 -23
55 10 179 153 583 39 110 76 206 83 213 15 16 1080 23 1102 7 15 -11 31 -54
168 -458 67 -199 99 -307 102 -351 5 -62 5 -63 -28 -89 -44 -33 -134 -75 -179
-83 -19 -3 -50 -10 -67 -16 l-33 -10 0 -98 0 -99 33 -6 c17 -3 388 -4 822 -3
l790 3 7 65 c4 36 5 81 2 102 -5 35 -7 37 -57 43 -133 19 -264 83 -343 168
-43 46 -73 95 -129 211 -69 143 -112 249 -355 886 -56 146 -112 292 -125 325
-25 62 -302 791 -405 1065 -85 226 -148 396 -245 660 -47 129 -91 240 -98 246
-9 8 -39 7 -112 -3z m-275 -1123 c11 -22 54 -131 94 -242 103 -284 221 -604
268 -728 61 -162 66 -146 -45 -154 -90 -7 -482 -6 -684 2 -85 3 -93 5 -93 23
0 31 118 348 264 714 73 182 140 351 150 378 10 26 19 47 22 47 2 0 13 -18 24
-40z"/>
<path d="M24655 8792 c-73 -5 -199 -32 -221 -47 -12 -8 -31 -38 -42 -67 -29
-77 -312 -786 -442 -1108 -62 -151 -183 -453 -270 -670 -491 -1227 -535 -1329
-612 -1443 -68 -100 -216 -187 -370 -218 -101 -20 -98 -16 -98 -123 0 -76 3
-95 16 -100 9 -3 321 -6 694 -6 l678 0 7 96 c4 53 3 99 -1 104 -5 4 -56 15
-114 25 -252 43 -380 121 -380 231 0 23 11 84 24 135 27 103 134 415 187 547
l34 83 543 2 c299 1 548 -1 553 -4 25 -15 269 -739 276 -817 5 -58 5 -60 -29
-85 -48 -37 -135 -74 -203 -86 -32 -6 -64 -16 -71 -22 -10 -8 -14 -38 -14
-104 l0 -92 31 -7 c17 -3 388 -6 824 -6 l792 0 7 61 c3 34 6 81 6 105 0 42 -1
43 -37 49 -194 30 -300 81 -383 187 -61 77 -164 295 -278 593 -366 952 -440
1146 -628 1645 -80 212 -166 439 -191 505 -25 66 -63 170 -84 230 -89 248
-143 391 -153 400 -6 6 -29 9 -51 7z m-336 -1137 c11 -24 73 -187 137 -362 64
-175 151 -412 195 -528 52 -141 75 -213 68 -220 -10 -10 -594 -16 -777 -8
l-94 4 7 27 c15 61 144 405 252 672 64 157 129 320 145 364 28 78 36 96 42 96
2 0 13 -20 25 -45z"/>
<path d="M406 8659 c-10 -100 -8 -136 9 -143 9 -3 57 -12 108 -21 126 -20 158
-30 214 -68 56 -37 106 -115 124 -191 19 -85 26 -558 23 -1616 -3 -1059 -5
-1121 -49 -1213 -40 -86 -141 -141 -305 -167 -36 -6 -80 -13 -97 -16 l-33 -5
0 -99 0 -99 43 -6 c23 -3 440 -5 927 -3 961 4 972 5 1239 64 295 66 551 194
716 360 216 216 330 517 296 784 -49 395 -306 645 -816 795 -65 19 -120 35
-122 35 -1 0 -3 7 -3 15 0 8 17 18 43 25 133 33 193 60 322 145 296 197 430
508 355 825 -83 345 -357 557 -825 637 -89 15 -217 17 -1131 20 l-1031 4 -7
-62z m1784 -228 c195 -61 340 -218 399 -431 26 -94 29 -302 5 -418 -44 -221
-180 -356 -421 -418 -87 -23 -121 -26 -295 -27 -150 -2 -200 1 -210 11 -10 10
-13 116 -15 515 -1 276 1 546 6 600 8 91 10 101 38 129 22 22 51 36 104 49 99
25 293 20 389 -10z m40 -1595 c277 -74 443 -235 511 -494 14 -53 22 -124 26
-227 4 -129 2 -165 -16 -253 -40 -192 -100 -312 -210 -423 -172 -172 -408
-223 -636 -138 -111 41 -194 155 -231 315 -14 57 -17 148 -19 539 -1 259 0
526 2 594 l4 123 237 -5 c212 -5 247 -8 332 -31z"/>
<path d="M9148 8643 c-2 -90 -1 -124 5 -130 2 -2 49 -11 103 -19 253 -39 331
-105 366 -305 19 -107 19 -2540 0 -2649 -32 -191 -117 -260 -368 -303 -45 -8
-87 -17 -93 -21 -7 -5 -11 -42 -11 -101 l0 -94 33 -6 c17 -3 408 -4 867 -3
l835 3 3 102 3 102 -38 6 c-93 15 -222 49 -264 70 -54 28 -114 92 -140 150
-31 71 -39 203 -39 681 0 357 3 464 13 472 17 14 240 -10 292 -32 81 -35 114
-81 311 -443 460 -843 593 -987 1000 -1078 171 -38 309 -55 516 -62 l186 -6
11 44 c7 24 18 59 26 77 8 18 15 39 15 47 0 8 -35 32 -78 55 -222 115 -445
384 -826 994 -198 317 -345 578 -346 613 0 7 42 34 93 59 256 128 428 291 517
488 49 108 81 257 81 381 0 506 -316 859 -851 949 -186 31 -341 36 -1277 36
l-943 0 -2 -77z m1779 -201 c280 -98 438 -354 459 -742 10 -178 -38 -396 -117
-525 -36 -60 -135 -168 -189 -208 -58 -42 -178 -84 -290 -101 -115 -18 -353
-26 -367 -13 -4 5 -8 338 -8 740 l0 732 23 42 c23 43 54 66 127 90 64 21 284
12 362 -15z"/>
<path d="M18157 8713 c-4 -3 -7 -50 -7 -104 l0 -98 48 -6 c114 -17 236 -45
285 -68 94 -43 193 -170 240 -307 22 -65 22 -68 25 -985 4 -1111 -9 -1468 -58
-1635 -40 -137 -154 -221 -375 -275 -103 -25 -102 -23 -104 -146 l-1 -66 31
-7 c17 -3 335 -6 705 -6 l674 0 2 80 c1 44 2 90 2 102 1 20 -7 24 -99 39 -115
18 -159 31 -230 67 -124 62 -196 160 -220 301 -33 185 -40 528 -37 1679 1 305
6 492 12 492 5 0 36 -35 68 -77 33 -43 104 -130 159 -193 95 -111 206 -243
753 -900 1356 -1629 1362 -1635 1398 -1647 15 -6 88 -9 162 -9 l135 1 2 610
c8 1843 11 2141 27 2360 19 270 23 297 51 360 23 53 90 122 146 150 45 24 156
61 222 75 l56 11 3 100 c2 56 1 103 -1 105 -2 2 -319 4 -703 4 l-699 0 3 -102
3 -102 110 -18 c194 -32 295 -71 365 -141 82 -82 94 -132 110 -427 12 -237 13
-1697 1 -1704 -4 -3 -50 45 -102 107 -52 62 -159 189 -239 282 -80 94 -161
188 -180 211 -19 22 -103 119 -185 215 -83 96 -166 193 -185 215 -19 23 -145
169 -279 325 -653 758 -763 886 -840 978 -35 42 -81 95 -103 119 l-38 42 -554
0 c-304 0 -556 -3 -559 -7z"/>
</g>
<g transform="translate(0.000000,2196.000000) scale(0.100000,-0.100000)"
fill="#fa2b2b" stroke="none">
<path d="M6062 3734 c-34 -8 -78 -21 -98 -29 l-37 -15 7 -53 c21 -162 26 -241
26 -422 0 -187 -13 -350 -39 -480 -79 -399 -178 -717 -323 -1040 -95 -211
-219 -365 -294 -365 -48 0 -79 36 -103 119 -36 122 -46 243 -46 541 0 268 2
295 29 445 15 88 59 284 97 435 95 383 149 659 135 695 -5 13 -15 15 -58 9
-29 -4 -64 -12 -78 -19 -37 -19 -134 -125 -159 -172 -52 -104 -96 -347 -111
-623 -13 -241 -22 -275 -205 -735 -106 -269 -176 -418 -242 -516 -47 -70 -123
-152 -157 -171 -26 -14 -70 17 -98 69 -70 132 -94 283 -85 538 13 353 113 775
296 1255 105 274 131 327 204 411 37 43 67 83 67 88 0 27 -253 1 -318 -33 -38
-19 -47 -38 -138 -291 -153 -419 -258 -854 -295 -1215 -18 -178 -16 -439 4
-545 33 -182 93 -359 140 -411 44 -51 109 -92 156 -100 130 -21 322 184 484
516 75 154 134 253 146 245 5 -2 11 -75 15 -161 11 -245 61 -453 128 -529 46
-52 120 -89 161 -81 61 12 161 72 235 140 113 104 277 391 404 706 191 476
338 1191 338 1645 0 56 -3 117 -6 134 -6 31 -7 31 -63 30 -31 -1 -84 -8 -119
-15z"/>
<path d="M14835 3738 c-103 -12 -252 -62 -321 -106 -104 -67 -142 -132 -131
-224 7 -59 20 -78 48 -71 11 3 93 42 182 87 89 45 186 87 215 94 117 26 298 5
399 -47 56 -28 156 -139 192 -213 64 -131 75 -197 75 -453 0 -267 -14 -362
-88 -582 -134 -401 -373 -725 -628 -854 -116 -59 -247 -87 -333 -72 l-50 8 -3
44 c-3 41 28 192 68 331 98 336 166 595 235 885 14 61 32 137 40 170 85 358
128 589 109 593 -44 11 -228 -66 -285 -119 -27 -25 -29 -33 -29 -97 0 -176
-131 -839 -245 -1237 -94 -329 -125 -419 -162 -473 -69 -99 -67 -93 -31 -125
56 -47 180 -117 247 -137 117 -37 281 -21 446 43 360 138 636 426 838 872 64
142 88 210 129 365 27 101 31 136 36 285 5 186 -7 276 -55 429 -109 348 -375
572 -714 601 -41 3 -83 7 -94 9 -11 2 -51 -1 -90 -6z"/>
<path d="M10343 3458 c-37 -8 -49 -18 -98 -85 -68 -93 -72 -126 -21 -171 19
-17 48 -33 65 -37 78 -17 161 87 164 207 2 52 -1 62 -22 79 -26 21 -27 21 -88
7z"/>
<path d="M16276 2953 c-39 -6 -151 -120 -193 -197 -39 -71 -44 -133 -13 -161
38 -35 27 -83 -60 -259 -44 -88 -104 -206 -133 -261 -156 -294 -186 -355 -200
-402 -9 -28 -13 -54 -10 -57 4 -3 21 -6 39 -6 42 0 99 63 179 197 32 54 70
116 85 138 30 44 202 344 238 415 13 25 32 56 43 69 19 23 21 23 84 11 36 -7
85 -9 109 -6 69 11 96 0 96 -38 0 -31 -128 -307 -148 -319 -5 -4 -31 -54 -57
-113 -70 -158 -65 -241 21 -343 82 -98 240 -94 399 12 33 21 113 94 179 160
111 113 119 120 132 102 8 -10 14 -27 14 -38 0 -43 61 -146 115 -195 133 -122
293 -124 526 -7 88 45 207 123 269 178 48 43 105 71 121 62 5 -4 8 -42 7 -88
-4 -106 17 -152 82 -184 52 -27 94 -29 175 -8 140 36 188 62 276 151 46 46 89
84 96 84 13 0 26 -39 44 -133 6 -33 20 -69 34 -85 22 -26 28 -27 107 -26 157
3 209 37 373 243 11 14 46 52 78 84 83 84 101 60 46 -64 -38 -89 -73 -223 -65
-255 6 -21 12 -24 54 -24 69 1 122 15 149 42 17 17 38 73 73 194 91 312 147
429 260 544 82 84 179 140 242 140 55 0 61 -25 43 -178 -16 -134 -45 -253
-126 -519 -27 -89 -49 -168 -49 -176 0 -17 21 -27 55 -27 46 0 127 22 144 39
10 10 25 56 35 107 26 130 62 236 118 349 64 129 120 207 208 288 75 69 134
104 194 114 32 5 37 3 47 -23 14 -38 5 -105 -37 -278 -65 -262 -77 -330 -77
-416 -1 -96 19 -148 73 -193 84 -71 282 -25 452 104 110 82 373 403 505 614
27 44 62 87 77 95 25 14 28 13 42 -5 8 -11 17 -31 20 -45 3 -14 34 -115 71
-225 77 -236 86 -296 53 -350 -46 -74 -130 -98 -169 -48 -12 14 -33 65 -47
112 -41 140 -37 135 -94 128 -69 -8 -84 -19 -130 -89 -51 -79 -51 -107 -2
-184 46 -70 100 -120 160 -146 106 -47 293 25 398 154 95 116 133 233 104 324
-7 21 -47 116 -90 209 -131 286 -146 360 -84 440 72 96 79 141 28 192 -23 23
-31 25 -84 20 -46 -4 -70 -13 -117 -45 -72 -49 -159 -140 -179 -187 -13 -31
-13 -39 1 -65 28 -54 21 -73 -84 -235 -96 -148 -330 -445 -395 -503 -61 -53
-150 -109 -195 -123 -42 -12 -44 -12 -64 12 -27 34 -19 118 33 329 91 367 97
451 42 563 -27 54 -40 69 -75 86 -55 26 -110 16 -224 -40 -72 -35 -96 -55
-183 -147 -62 -66 -103 -102 -109 -97 -5 6 -14 53 -21 105 -18 155 -59 206
-155 195 -101 -12 -230 -89 -361 -216 -45 -44 -87 -79 -93 -79 -16 0 -14 88 4
146 28 92 24 96 -90 83 -112 -12 -111 -11 -166 -234 -39 -158 -88 -243 -222
-384 -29 -31 -97 -107 -152 -170 -76 -86 -112 -120 -149 -137 -27 -12 -55 -20
-63 -17 -47 18 -57 160 -22 316 59 266 89 416 89 450 l0 39 -38 -7 c-49 -8
-67 10 -58 57 21 112 21 117 -15 155 -76 80 -153 89 -277 32 -191 -86 -319
-231 -466 -527 -77 -153 -88 -169 -199 -266 -170 -150 -357 -256 -449 -256
-46 0 -154 58 -194 104 -19 22 -39 58 -45 80 -10 35 -8 46 7 75 11 19 33 41
49 50 142 76 259 164 382 288 90 91 143 192 151 289 4 58 2 68 -23 105 -42 60
-98 89 -172 89 -144 0 -322 -120 -454 -307 -66 -92 -169 -321 -169 -374 0 -25
-268 -289 -355 -350 -108 -75 -157 -86 -190 -41 -42 57 -21 146 71 297 156
257 170 289 160 361 -3 23 -19 72 -37 109 -42 89 -59 97 -188 89 -131 -9 -133
-8 -116 53 8 26 21 68 30 92 18 50 9 120 -22 168 -17 25 -70 54 -95 52 -7 -1
-26 -4 -42 -6z m1392 -315 c22 -22 14 -87 -20 -150 -54 -101 -264 -298 -319
-298 -27 0 -29 3 -29 35 0 49 77 192 179 334 53 74 153 115 189 79z m1086 -60
c15 -29 36 -69 47 -88 27 -50 24 -134 -10 -271 -41 -163 -63 -210 -131 -272
-148 -138 -259 -189 -293 -136 -24 38 -40 137 -33 209 8 85 37 186 81 279 95
199 206 331 280 331 27 0 34 -6 59 -52z"/>
<path d="M6815 2797 c-115 -46 -206 -114 -296 -223 -98 -119 -147 -206 -192
-339 -37 -109 -40 -129 -40 -220 0 -76 5 -114 21 -157 62 -169 209 -294 347
-292 136 1 397 115 525 229 114 101 150 110 150 37 0 -51 25 -133 51 -166 29
-37 91 -66 141 -66 49 0 215 51 262 79 17 11 49 39 71 62 52 53 113 99 135 99
14 0 18 -13 23 -70 11 -132 47 -167 170 -163 82 2 127 16 187 56 71 47 108 86
165 174 84 128 133 147 149 58 4 -28 20 -88 33 -135 21 -71 32 -91 67 -123 61
-58 88 -69 136 -58 22 5 55 20 74 34 70 54 187 182 272 299 126 172 169 224
185 219 8 -2 57 -3 110 -2 73 1 121 8 200 30 57 16 120 31 139 33 34 3 35 2
34 -32 0 -19 -9 -78 -18 -130 -24 -128 -18 -200 25 -286 38 -75 64 -96 151
-120 42 -11 63 -12 103 -3 101 23 162 65 305 209 155 157 190 183 190 139 0
-21 -67 -203 -101 -274 -23 -48 -25 -91 -4 -99 17 -6 117 10 157 25 42 17 55
38 82 139 13 52 41 156 61 230 40 153 62 209 110 285 67 103 202 220 290 250
61 20 93 13 101 -21 11 -44 -14 -187 -77 -444 -48 -194 -60 -257 -57 -302 5
-65 36 -120 93 -164 59 -45 155 -34 288 32 36 18 91 66 179 156 70 72 132 128
140 126 7 -3 16 -24 20 -48 21 -121 69 -212 125 -235 120 -50 258 -21 437 93
28 18 57 32 65 32 8 0 23 7 33 17 26 23 22 5 -13 -72 -27 -58 -42 -74 -104
-120 -73 -54 -202 -162 -285 -239 -25 -23 -73 -66 -108 -96 -147 -126 -214
-300 -198 -512 22 -297 148 -478 331 -478 53 0 59 3 104 45 92 86 167 276 262
665 126 520 149 605 167 629 10 14 58 47 107 73 120 66 176 110 340 273 135
134 232 257 236 300 3 43 -1 55 -22 55 -36 0 -62 -20 -184 -145 -158 -160
-410 -385 -432 -385 -18 0 -17 72 2 140 29 105 72 286 94 395 13 61 41 168 62
238 22 71 39 141 37 155 -3 25 -7 27 -58 30 -30 1 -66 -3 -79 -10 -36 -19 -61
-68 -71 -139 -5 -34 -13 -66 -18 -71 -5 -5 -35 42 -73 119 -75 150 -92 165
-184 171 -123 8 -222 -35 -329 -141 -105 -105 -177 -235 -231 -421 -13 -48
-30 -96 -36 -109 -18 -32 -310 -320 -362 -356 -52 -36 -59 -37 -92 -15 -34 22
-33 81 4 215 61 220 113 447 118 514 7 91 -21 168 -82 232 l-44 45 -68 -4
c-90 -5 -167 -44 -258 -129 -70 -66 -113 -99 -127 -99 -12 0 -10 56 4 122 15
72 7 81 -67 71 -131 -17 -141 -32 -206 -306 -21 -90 -40 -148 -56 -170 -39
-52 -424 -417 -468 -442 -60 -35 -106 -41 -135 -17 -23 19 -25 26 -24 114 1
70 9 124 33 218 69 268 114 411 171 541 17 37 30 72 30 79 0 21 -139 1 -206
-30 -60 -27 -62 -29 -93 -105 -18 -43 -42 -114 -53 -159 -11 -44 -24 -89 -29
-98 -14 -27 -290 -93 -364 -86 -55 4 -57 30 -7 127 53 102 102 258 102 321 l0
50 -60 0 c-33 0 -75 -6 -93 -14 -110 -48 -226 -268 -211 -399 13 -106 -4 -139
-182 -367 -181 -233 -198 -235 -243 -34 -29 129 -32 177 -21 292 10 104 49
315 76 406 8 27 14 60 14 73 0 20 -5 23 -40 23 -95 0 -194 -64 -218 -142 -18
-55 -42 -257 -42 -349 0 -97 -5 -107 -89 -183 -68 -63 -100 -96 -141 -151 -58
-76 -105 -122 -149 -145 -76 -38 -101 -23 -112 73 -9 74 3 170 41 332 15 66
36 169 46 228 l17 108 -26 27 c-32 33 -47 72 -47 119 0 47 -25 96 -66 133 -31
27 -41 30 -104 30 -70 0 -83 -4 -178 -47 -173 -80 -346 -293 -443 -544 -35
-91 -75 -139 -207 -250 -172 -144 -278 -205 -398 -230 -53 -11 -66 -10 -108 6
-81 31 -159 126 -173 210 -7 46 5 59 102 107 102 50 238 151 341 254 110 110
158 203 159 308 0 65 -3 77 -29 110 -46 61 -80 76 -166 75 -41 0 -88 -6 -105
-12z m90 -164 c21 -20 13 -86 -17 -150 -29 -61 -191 -217 -300 -287 -43 -28
-62 -15 -54 35 20 125 190 373 280 409 34 14 74 11 91 -7z m1054 4 c6 -8 14
-29 17 -48 9 -45 21 -67 52 -94 23 -20 25 -29 23 -81 -3 -86 -36 -260 -61
-329 -26 -69 -108 -157 -222 -238 -113 -80 -151 -72 -189 38 -27 78 -21 166
21 295 58 178 199 387 304 451 37 23 40 23 55 6z m4614 -7 c27 -21 51 -85 87
-224 11 -43 29 -93 40 -111 27 -43 25 -97 -5 -192 -28 -90 -73 -150 -168 -226
-80 -65 -129 -87 -195 -87 -72 0 -106 20 -139 83 -26 49 -28 59 -28 182 0 109
4 141 23 199 34 100 74 185 120 252 48 71 62 84 126 118 59 31 104 33 139 6z
m-46 -1295 c-4 -25 -20 -77 -36 -115 -30 -71 -48 -134 -76 -270 -28 -134 -128
-432 -157 -467 -6 -7 -25 -13 -44 -13 -67 0 -93 63 -101 245 -10 214 31 310
217 496 104 105 179 169 199 169 2 0 1 -20 -2 -45z"/>
</g>
</svg>
